<?xml version="1.0" encoding="iso-8859-1"?>
<!-- Generator: Adobe Illustrator 19.0.0, SVG Export Plug-In . SVG Version: 6.00 Build 0)  -->
<svg version="1.1" id="Capa_1" xmlns="http://www.w3.org/2000/svg" xmlns:xlink="http://www.w3.org/1999/xlink" x="0px" y="0px"
	 viewBox="0 0 430.082 430.082" style="enable-background:new 0 0 430.082 430.082;" xml:space="preserve">
<g>
	<g>
		<path d="M407.71,124.995c-1.287-1.347-3.07-2.113-4.937-2.113H204.8c-1.867,0-3.651,0.766-4.937,2.113
			c-1.29,1.347-1.971,3.166-1.884,5.033l4.931,106.027c0.174,3.761,3.42,6.728,7.137,6.501c3.767-0.174,6.678-3.374,6.504-7.141
			l-4.599-98.879h183.675l-13.02,279.893H229.292c-3.77,0-6.827,3.053-6.827,6.827s3.057,6.827,6.827,6.827h159.829
			c3.647,0,6.649-2.867,6.82-6.508l13.653-293.547C409.68,128.161,409.001,126.342,407.71,124.995z"/>
	</g>
</g>
<g>
	<g>
		<path d="M279.895,375.469H34.135c-3.77,0-6.827,3.053-6.827,6.827c0,26.347,21.437,47.787,47.787,47.787h163.84
			c26.349,0,47.787-21.441,47.787-47.787C286.721,378.522,283.665,375.469,279.895,375.469z M238.935,416.429H75.095
			c-16.485,0-30.278-11.747-33.447-27.307h230.734C269.211,404.682,255.418,416.429,238.935,416.429z"/>
	</g>
</g>
<g>
	<g>
		<path d="M279.895,334.509H34.135c-15.056,0-27.307,12.247-27.307,27.307s12.25,27.307,27.307,27.307h245.76
			c15.056,0,27.307-12.247,27.307-27.307S294.951,334.509,279.895,334.509z M279.895,375.469H34.135
			c-7.53,0-13.653-6.127-13.653-13.653c0-7.526,6.124-13.653,13.653-13.653h245.76c7.53,0,13.653,6.127,13.653,13.653
			C293.548,369.342,287.424,375.469,279.895,375.469z"/>
	</g>
</g>
<g>
	<g>
		<path d="M300.373,204.802c-31.147,0-58.329,21.042-66.103,51.161c-0.944,3.654,1.253,7.373,4.903,8.32
			c3.659,0.934,7.373-1.253,8.317-4.907c6.216-24.095,27.962-40.921,52.883-40.921c30.114,0,54.613,24.499,54.613,54.613
			s-24.499,54.613-54.613,54.613c-6.263,0-12.397-1.046-18.227-3.113c-3.55-1.246-7.456,0.601-8.713,4.154
			c-1.26,3.553,0.601,7.453,4.154,8.713c7.298,2.586,14.964,3.9,22.787,3.9c37.644,0,68.265-30.626,68.265-68.267
			S338.017,204.802,300.373,204.802z"/>
	</g>
</g>
<g>
	<g>
		<path d="M170.668,225.282h-27.307c-63.993,0-116.053,52.06-116.053,116.053c0,3.773,3.057,6.827,6.827,6.827h245.76
			c3.77,0,6.827-3.053,6.827-6.827C286.721,277.343,234.661,225.282,170.668,225.282z M41.188,334.509
			c3.526-53.294,48.003-95.573,102.173-95.573h27.307c54.17,0,98.647,42.279,102.173,95.573H41.188z"/>
	</g>
</g>
<g>
	<g>
		<rect x="88.748" y="266.241" width="13.653" height="13.653"/>
	</g>
</g>
<g>
	<g>
		<rect x="81.921" y="293.547" width="13.653" height="13.653"/>
	</g>
</g>
<g>
	<g>
		<rect x="163.841" y="259.414" width="13.653" height="13.653"/>
	</g>
</g>
<g>
	<g>
		<rect x="204.801" y="293.547" width="13.653" height="13.653"/>
	</g>
</g>
<g>
	<g>
		<rect x="143.361" y="300.374" width="13.653" height="13.653"/>
	</g>
</g>
<g>
	<g>
		<path d="M416.428,95.576H184.321c-3.77,0-6.827,3.053-6.827,6.827v27.307c0,3.773,3.057,6.827,6.827,6.827h232.107
			c3.77,0,6.827-3.053,6.827-6.827v-27.307C423.255,98.629,420.198,95.576,416.428,95.576z M409.601,122.882H191.148v-13.653
			h218.453V122.882z"/>
	</g>
</g>
<g>
	<g>
		<path d="M238.784,100.969l-20.48-95.573c-0.79-3.68-4.413-6.04-8.107-5.239c-3.686,0.787-6.036,4.42-5.246,8.107l20.48,95.573
			c0.686,3.2,3.519,5.393,6.67,5.393c0.473,0,0.957-0.048,1.437-0.154C237.225,108.289,239.575,104.655,238.784,100.969z"/>
	</g>
</g>
<g>
</g>
<g>
</g>
<g>
</g>
<g>
</g>
<g>
</g>
<g>
</g>
<g>
</g>
<g>
</g>
<g>
</g>
<g>
</g>
<g>
</g>
<g>
</g>
<g>
</g>
<g>
</g>
<g>
</g>
</svg>
