<svg id="Capa_1" enable-background="new 0 0 512 512" height="512" viewBox="0 0 512 512" width="512" xmlns="http://www.w3.org/2000/svg"><g><g><path d="m186.826 85.343c2.665 0 5.247-1.425 6.603-3.935l6.504-12.035c1.969-3.643.612-8.192-3.031-10.161-3.646-1.969-8.193-.61-10.161 3.031l-6.504 12.035c-1.969 3.643-.612 8.193 3.031 10.161 1.133.613 2.353.904 3.558.904z"/><path d="m263.408 78.666v-13.68c0-4.141-3.357-7.498-7.498-7.498s-7.498 3.357-7.498 7.498v13.68c0 4.141 3.357 7.498 7.498 7.498s7.498-3.357 7.498-7.498z"/><path d="m325.175 85.242c1.277 0 2.571-.327 3.755-1.013 3.582-2.078 4.802-6.666 2.724-10.248l-6.863-11.834c-2.078-3.582-6.666-4.801-10.248-2.724-3.582 2.078-4.802 6.666-2.724 10.248l6.863 11.834c1.391 2.397 3.907 3.737 6.493 3.737z"/><path d="m512 231.606v-6.606c0-14.005-7.054-26.388-17.791-33.8 2.527-2.041 4.806-4.445 6.756-7.203 6.651-9.406 8.322-21.521 4.471-32.406-9.3-26.29-28.628-64.149-67.893-95.215-45.273-35.818-106.316-54.532-181.435-55.619-.072-.001-.145-.001-.217 0-33.951.491-65.402 4.645-93.479 12.346-3.993 1.095-6.343 5.221-5.248 9.214s5.22 6.345 9.214 5.248c26.826-7.358 56.978-11.332 89.621-11.812 162.214 2.39 217.053 89.26 235.298 140.839 2.263 6.396 1.323 13.229-2.578 18.748-3.868 5.471-9.934 8.609-16.642 8.609h-432.158c-6.733 0-12.831-3.156-16.728-8.66-3.851-5.437-4.797-12.142-2.597-18.394 13.301-37.796 43.846-89.012 113.825-118.36 3.819-1.602 5.617-5.995 4.015-9.814-1.602-3.82-5.998-5.615-9.814-4.015-34.074 14.29-62.586 34.936-84.742 61.364-16.303 19.445-28.896 41.599-37.429 65.847-3.836 10.902-2.195 22.58 4.505 32.039 1.951 2.756 4.271 5.174 6.855 7.232-10.748 7.411-17.809 19.8-17.809 33.812v6.606c0 19.799 14.089 36.368 32.767 40.211l-.15 44.776c-18.602 3.901-32.617 20.428-32.617 40.172v6.606c0 19.788 14.074 36.349 32.737 40.204-.503 7.891-.245 20.697 4.305 34.945 12.263 38.4 45.474 56.688 71.174 65.267 14.821 4.947 30.649 7.456 47.044 7.456h201.481c16.395 0 32.222-2.509 47.043-7.456 25.701-8.58 58.912-26.867 71.174-65.267 4.55-14.247 4.808-27.054 4.305-34.945 18.663-3.854 32.737-20.416 32.737-40.204v-6.606c0-19.797-14.091-36.352-32.767-40.194v-44.754c18.678-3.842 32.767-20.412 32.767-40.211zm-497.004 131.765v-6.606c0-11.394 7.361-21.081 17.57-24.611l-.015 4.419c0 10.643 5.969 20.075 15.576 24.616 9.663 4.567 20.811 3.177 29.09-3.627 3.873-3.183 8.588-6.128 16.792-6.128.863 0 1.676.035 2.469.084v37.909h-55.427c-14.367 0-26.055-11.689-26.055-26.056zm298.792-58.651h150.449v31.856c0 4.857-2.613 8.991-6.988 11.058-4.432 2.094-9.351 1.476-13.16-1.654-5.406-4.443-13.283-9.543-26.321-9.543-16.099 0-24.353 6.538-31.635 12.307-6.394 5.065-11.445 9.065-22.325 9.065-10.881 0-15.931-4-22.325-9.065-7.282-5.768-15.536-12.307-31.636-12.307s-24.714 6.824-31.636 12.307c-6.394 5.065-11.444 9.065-22.323 9.065-10.88 0-15.93-4-22.323-9.065-6.921-5.483-15.536-12.307-31.635-12.307-16.1 0-24.353 6.538-31.636 12.307-4.558 3.611-8.451 6.667-14.245 8.129v-42.219c0-5.478 4.456-9.934 9.934-9.934h112.646c4.141 0 7.498-3.357 7.498-7.498s-3.357-7.498-7.498-7.498h-112.647c-13.747 0-24.93 11.183-24.93 24.93v92.341c0 8.155-6.634 14.79-14.789 14.79s-14.789-6.635-14.789-14.79v-92.341c0-13.747-11.184-24.93-24.93-24.93h-38.781v-17.066h416.474v17.066h-150.449c-4.141 0-7.498 3.357-7.498 7.498s3.357 7.498 7.498 7.498zm-227.245 0c5.478 0 9.935 4.456 9.935 9.934v21.846c-.803-.037-1.62-.063-2.469-.063-13.034 0-20.909 5.097-26.313 9.538-3.81 3.13-8.729 3.749-13.163 1.654-4.375-2.067-6.987-6.201-6.987-11.057v-31.852zm374.13 129.238c-8.308 26.017-29.046 44.725-61.638 55.604-13.287 4.436-27.517 6.685-42.295 6.685h-201.48c-14.778 0-29.008-2.249-42.295-6.685-63.845-21.312-66.519-68.39-65.308-85.14h48.822v2.572c0 16.424 13.361 29.786 29.785 29.786s29.785-13.361 29.785-29.786v-2.572h308.256c.423 6.405.271 17.313-3.632 29.536zm36.331-77.193v6.606c0 14.367-11.689 26.056-26.056 26.056h-314.9v-17.248c10.995-1.754 17.607-6.968 23.556-11.68 6.394-5.065 11.445-9.065 22.325-9.065s15.93 4 22.323 9.065c6.922 5.483 15.536 12.307 31.635 12.307s24.353-6.538 31.635-12.307c6.394-5.065 11.444-9.065 22.324-9.065 10.881 0 15.931 4 22.325 9.065 7.282 5.768 15.536 12.307 31.636 12.307s24.354-6.538 31.636-12.307c6.394-5.065 11.444-9.065 22.324-9.065 8.207 0 12.924 2.947 16.799 6.133 8.278 6.803 19.425 8.194 29.089 3.627 9.608-4.54 15.577-13.973 15.577-24.617v-4.508c10.318 3.469 17.772 13.225 17.772 24.696zm-26.055-99.103h-429.898c-14.367 0-26.056-11.689-26.056-26.056v-6.606c0-14.367 11.689-26.056 26.056-26.056h429.897c14.367 0 26.056 11.689 26.056 26.056v6.606c0 14.367-11.688 26.056-26.055 26.056z"/></g></g></svg>